<svg preserveAspectRatio="none" width="100%" height="100%" overflow="visible" style="display: block;" viewBox="0 0 135.453 41.33" fill="none" xmlns="http://www.w3.org/2000/svg">
<g id="house buyer on cbs [Vectorized]">
<path id="Vector" d="M77.7669 3.4695C80.3529 3.37183 83.1221 3.42896 85.812 3.45766C91.5039 3.51842 99.0643 2.43596 102.473 8.23618C102.718 8.65411 103.185 10.3934 103.302 10.4796C103.399 10.4375 103.417 10.4291 103.522 10.4192C103.74 10.7886 103.543 11.9259 103.55 12.3385C103.563 13.088 103.891 13.6046 103.222 14.0189C103.183 14.0425 103.092 14.3389 103.07 14.424C102.78 15.5539 102.281 16.6451 101.521 17.5383C101.011 18.1265 100.01 18.9002 99.3057 19.2224C100.431 20.3924 101.611 20.7606 102.884 21.7149C102.881 21.7127 103.731 22.6539 103.776 22.7089C105.051 24.2639 105.319 26.549 105.23 28.496C105.167 29.2511 104.943 30.2434 104.863 31.1364C104.397 31.6705 104.23 32.0636 103.894 32.6752C103.376 33.7193 101.127 35.3804 100.024 35.8232C95.1197 37.7912 89.285 36.979 84.0937 37.1518C82.7524 37.1964 77.6948 37.2757 76.8231 36.9371C76.6491 34.8096 76.6729 32.9112 76.6723 30.7793L76.6709 23.7281L76.6716 12.3973C76.6723 11.1618 76.5784 4.3296 76.8806 3.6895C77.1042 3.49022 77.4501 3.50317 77.7669 3.4695ZM93.6058 23.2858C92.4669 22.7109 86.4516 23.1782 84.7974 23.0931C84.4324 23.0742 84.1817 23.1183 84.0236 23.4586C83.8014 24.5149 83.9204 29.1523 83.9555 30.4106C84.9489 30.5706 87.8114 30.4594 88.9424 30.4697C90.8207 30.4273 92.7301 30.5719 94.6019 30.4039C96.801 30.2065 98.1602 28.3092 97.8811 26.1908C97.5709 25.6805 97.6939 26.0877 97.5279 25.3685C97.2144 24.007 94.7904 23.4706 93.6058 23.2858ZM94.6118 16.1389C96.4782 15.3131 96.5993 11.1838 94.1085 10.4687C91.0978 9.6039 88.0885 10.1481 84.9992 9.97382C84.8947 9.96747 84.7306 9.97693 84.6334 9.99988C84.4125 10.0518 84.1519 10.0833 84.0044 10.245C83.8748 10.7416 83.898 16.2341 84.0064 16.8378C84.3239 17.1345 91.0753 17.0404 91.955 17.0114C92.9067 16.9843 93.8294 16.6811 94.6118 16.1389Z" fill="var(--fill-0, #6B6B6B)"/>
<path id="Vector_2" d="M84.0236 23.4586C84.1817 23.1183 84.4324 23.0742 84.7974 23.0931C86.4516 23.1782 92.4669 22.7109 93.6058 23.2858C92.7103 23.2773 92.8823 23.6755 92.3876 23.6431C91.1547 23.5621 86.2353 23.919 85.3867 23.5145L85.4152 23.517C84.7928 23.1496 84.6916 23.1391 84.0236 23.4586Z" fill="var(--fill-0, white)" fill-opacity="0.258824"/>
<path id="Vector_3" d="M108.126 11.5987C108.4 9.13215 109.735 7.1534 111.591 5.53385C112.157 5.03948 112.594 4.91044 113.156 4.55728C115.228 3.25438 117.823 3.02758 120.216 3.05944C120.753 3.06658 121.729 3.0496 122.268 3.11113C125.734 3.53366 129.036 4.82307 131.871 6.86012C131.838 8.13884 131.605 7.89476 131.332 8.9128C130.728 9.27062 128.858 11.9822 128.523 12.6741C127.262 12.2357 126.342 11.5666 125.177 10.9481C124.163 10.4097 122.817 10.0833 121.735 9.65753C121.352 9.50683 120.638 9.51483 120.226 9.46351C118.504 9.30924 116.143 9.86273 115.471 11.6574C115.203 12.3707 115.395 13.1268 115.544 13.8487C115.854 14.1786 116.819 15.0448 116.962 15.2601C119.823 16.1942 122.626 17.0844 125.562 17.7733C126.464 17.9852 127.408 18.8044 128.358 19.0324C128.605 19.1859 128.946 19.4294 129.181 19.5755C130.683 20.5088 131.609 21.4497 132.419 23.0049C133.294 24.683 133.01 25.8127 133.207 27.5905C133.236 27.8508 133.382 28.1123 133.303 28.3683L133.129 28.4621C133.023 28.8733 132.99 29.3258 132.908 29.7462C132.816 30.2186 132.673 30.7108 132.621 31.1872C132.149 31.629 132.089 32.015 132.022 32.644L132.001 32.6565C131.421 33.0014 130.666 34.013 130.158 34.5195C128.724 35.9499 126.73 36.8108 124.763 37.1737C123.941 37.3254 122.588 37.1157 121.999 37.8076C121.642 37.7828 120.189 37.6609 119.95 37.6023C118.456 37.2367 117.009 37.2369 115.524 36.8963C113.338 36.3954 107.938 34.2013 107.022 32.1057C107.449 31.17 110.17 27.7185 111.002 27.4064C111.033 27.3944 111.066 27.3849 111.099 27.3749C111.108 27.3724 111.115 27.3695 111.124 27.367C111.276 27.3227 111.461 27.4374 111.589 27.5102C112.554 28.0569 113.428 28.7911 114.394 29.3272C115.601 29.9971 116.488 30.1896 117.788 30.5382C117.973 30.5877 118.127 30.7206 118.317 30.7717C119.606 31.1202 121.495 31.1968 122.802 30.8479C123.943 30.5435 125.034 30.0822 125.645 29.0157C125.987 28.4161 126.075 27.8333 125.892 27.167C125.661 26.3247 125.11 25.753 124.362 25.3289C122.829 24.4597 121.102 24.1288 119.42 23.6892C118.96 23.569 118.579 23.2991 118.131 23.1748C117.252 22.9302 116.364 22.7537 115.489 22.4789C114.937 22.3052 114.401 22.0424 113.871 21.808C111.959 20.9601 110.472 20.0343 109.312 18.231C109.008 17.7583 108.563 17.1415 108.409 16.6011C108.226 15.9593 108.184 15.2241 108.124 14.5583C108.087 13.6507 108.077 12.4928 108.126 11.5987Z" fill="var(--fill-0, #6B6B6B)"/>
<path id="Vector_4" d="M53.5161 4.08187C54.0596 3.99241 54.4072 3.88868 54.929 3.71087C55.8335 3.40266 56.9632 3.23133 57.9137 3.09547C61.7651 2.54112 65.6944 3.14431 69.2019 4.82836C69.7111 5.07402 70.7198 5.5291 71.0948 5.87237C71.6861 6.4268 72.7787 7.04653 73.2939 7.55863C73.9593 8.22044 71.8441 10.1208 71.4585 10.6171C70.9751 11.239 70.5326 11.8858 69.9724 12.4315C69.5835 12.8097 69.1033 13.4565 68.5392 13.0139C66.7071 11.5783 64.7025 10.3759 62.3835 9.93884C61.7826 9.82444 61.1132 9.75904 60.5046 9.56184L60.4797 9.57613C60.1152 9.78344 57.984 10.1105 57.366 10.2868C54.815 11.0143 52.5559 13.245 51.575 15.6825C51.4662 15.9521 51.5396 16.6032 51.3746 16.8548L51.3522 16.8637C51.2115 16.9208 50.9924 17.0196 50.9613 17.1909C50.6312 19.0093 50.7394 21.1317 50.9204 22.9704C50.9389 23.1582 51.2414 23.2537 51.3883 23.2859C51.471 23.6689 51.3476 24.0492 51.4604 24.4184C52.5168 27.875 55.7932 30.4188 59.3714 30.8227C61.9171 31.11 64.6903 30.2732 66.8321 28.8723C67.389 28.5082 68.8665 26.8901 69.5696 27.2539C70.1854 27.9184 72.9275 30.8312 73.612 31.2246L73.6014 32.0317C71.1927 34.4386 68.7072 36.2872 65.3471 37.1356C64.3778 37.3804 63.7452 37.1431 62.6709 37.5686L62.3187 37.5818C61.6848 37.5408 61.7557 37.7339 61.2822 37.8328C61.0198 37.8876 60.1691 37.71 59.8678 37.7194C59.5556 37.7293 59.3202 37.9163 59.0071 37.8603C58.7413 37.5443 57.7526 37.4429 57.2895 37.3816C55.8804 37.1953 54.5497 36.8265 53.1953 36.4043C51.8246 35.7985 50.6134 34.9547 49.44 34.0722C47.298 32.4613 46.1928 30.7594 44.9277 28.5057C43.0574 25.1737 42.8491 21.7849 43.0917 18.0449C43.2159 16.1314 43.7924 14.2652 44.6567 12.5514C44.9226 12.0172 45.4102 11.3213 45.4937 10.7967C46.2878 10.1116 46.1002 9.89328 46.6234 9.29356C48.0914 7.61061 49.7192 6.10832 51.7 5.04858C52.3376 4.70749 53.0584 4.61249 53.5161 4.08187Z" fill="var(--fill-0, #6B6B6B)"/>
<path id="Vector_5" d="M108.124 14.5583L108.023 14.5839L107.88 14.8261L107.795 14.8287C107.666 14.5456 107.639 12.0376 107.844 11.8188L107.953 12.0003L108.005 12.0051L108.126 11.5987C108.077 12.4928 108.087 13.6507 108.124 14.5583Z" fill="var(--fill-0, #FFFEFE)" fill-opacity="0.239216"/>
<path id="Vector_6" d="M62.3187 37.5818L62.6709 37.5686C63.1082 37.6221 63.4579 37.548 63.9422 37.616L63.9508 37.6815C63.5811 37.8967 62.5436 38.0683 62.2019 37.7571C62.2394 37.6955 62.2776 37.641 62.3187 37.5818Z" fill="var(--fill-0, white)" fill-opacity="0.0431373"/>
<path id="Vector_7" d="M20.6414 0.608472C21.2028 0.62368 23.0244 0.661849 23.5118 0.614489C24.098 0.641581 24.7289 0.634923 25.3023 0.759976C25.8084 0.870344 26.3016 1.07795 26.8035 1.21296C27.3934 1.37161 27.9927 1.49632 28.5692 1.7011C31.4131 2.71139 34.2229 4.55952 36.2588 6.79194C37.8765 8.56563 39.7296 11.4189 40.4946 13.6996C40.6249 14.0877 40.5794 14.5324 40.7081 14.9265C40.8113 15.2429 41.181 15.3153 41.2507 15.6013C41.4043 16.2311 41.2634 16.9301 41.3855 17.5725L41.4109 19.4026C41.5978 19.8982 41.4365 20.4327 41.4207 20.965C41.4009 21.6291 41.3877 22.2853 41.3843 22.9499C41.3196 23.7323 41.3097 24.5935 41.2286 25.355C41.1255 25.2864 41.0861 25.1848 41.0252 25.0733C40.8182 25.2272 40.7567 25.7206 40.7181 25.9644C40.1284 29.686 36.6654 34.3126 33.802 36.5115C29.3042 39.9656 24.0196 41.0302 18.5151 40.2023C16.9327 39.9493 15.3323 39.5353 13.9174 38.766C13.6603 38.6262 13.238 38.5961 12.996 38.4508C10.3433 36.8583 8.05136 35.1414 6.2036 32.6117C4.43525 30.1907 3.09981 27.3952 2.63077 24.4193C2.58021 24.0867 2.47962 23.41 2.50776 23.0989C2.51797 23.0328 2.5262 22.9664 2.53242 22.8998C2.57212 22.4634 2.5422 19.4007 2.40122 19.2308C2.38685 19.3408 2.34902 19.4841 2.32305 19.5956L2.22927 19.5966C2.24129 19.2259 2.22581 19.0385 2.18349 18.6686C2.44852 18.4042 2.42067 17.9919 2.45471 17.6381C2.85482 13.4814 4.84781 9.70461 7.63158 6.68501C9.86139 4.25108 12.6964 2.45133 15.848 1.46899C16.1281 1.37982 16.4253 1.34143 16.7021 1.26383C17.0116 1.17709 17.528 0.829067 17.8262 0.785964C18.72 0.656723 19.7352 0.645 20.6414 0.608472ZM11.4901 21.586C11.4127 20.3438 11.4584 19.54 11.5422 18.3098C11.5999 17.5852 12.1147 16.2566 12.4455 15.592C13.749 12.9733 16.9656 10.4175 19.9213 10.1581C20.1369 10.196 20.6856 10.1442 20.9307 10.128L22.3038 10.1319C22.8479 10.1536 23.5668 10.2012 24.0972 10.1829C26.7722 10.6798 29.0838 12.2529 30.5969 14.4994C30.9792 15.0669 31.2751 15.6255 31.6992 16.1626C31.6987 16.1712 31.6982 16.1797 31.6978 16.1883C31.7684 17.2207 32.3073 18.1378 32.4871 19.2025C32.6198 19.9876 32.5738 21.6314 32.4801 22.4734C32.4741 22.5264 32.1215 22.8928 32.0836 23.0133C31.9553 23.4213 31.8932 23.8068 31.77 24.215C31.3781 25.514 30.3274 27.211 29.3094 28.121C27.5869 29.6605 25.8867 30.5411 23.5807 30.9065C22.8479 31.0226 22.419 31.1448 21.6465 31.1127C18.7409 30.9918 16.0043 29.7136 14.047 27.5631C12.5185 25.8933 11.5731 23.861 11.4901 21.586ZM32.6125 29.1079C33.6329 27.9094 35.1304 27.3797 36.1719 26.192C37.5472 24.6238 39.3403 22.5707 40.0278 20.5603C40.2243 19.9855 39.4664 19.0247 39.1479 18.5231C35.6639 13.0356 30.3163 10.0183 24.0012 9.02065C23.2542 8.69841 20.6944 8.58943 20.069 9.11092C15.1403 9.26619 9.28962 12.5127 6.20735 16.3453C5.51555 17.4521 3.75663 19.2663 3.78306 20.5948C3.95602 21.4233 5.01426 23.0912 5.47959 23.6986C9.53585 28.993 15.8482 32.4993 22.6351 31.8984C23.0789 31.8591 23.775 31.8496 24.2324 31.8509C26.426 31.8571 28.4079 30.922 30.4157 30.1659C31.1247 29.8977 31.7847 29.2299 32.6125 29.1079Z" fill="var(--fill-0, #6B6B6B)"/>
<path id="Vector_8" d="M20.9307 10.128L22.3038 10.1319C22.8479 10.1536 23.5668 10.2012 24.0972 10.1829C26.7722 10.6798 29.0838 12.2529 30.5969 14.4994C30.9792 15.0669 31.2751 15.6255 31.6992 16.1626C31.6987 16.1712 31.6982 16.1797 31.6978 16.1883C31.7684 17.2207 32.3073 18.1378 32.4871 19.2025C32.6198 19.9876 32.5738 21.6314 32.4801 22.4734C32.4741 22.5264 32.1215 22.8928 32.0836 23.0133C31.9553 23.4213 31.8932 23.8068 31.77 24.215C31.3781 25.514 30.3274 27.211 29.3094 28.121C27.5869 29.6605 25.8867 30.5411 23.5807 30.9065C22.8479 31.0226 22.419 31.1448 21.6465 31.1127C18.7409 30.9918 16.0043 29.7136 14.047 27.5631C12.5185 25.8933 11.5731 23.861 11.4901 21.586C11.4127 20.3438 11.4584 19.54 11.5422 18.3098C11.5999 17.5852 12.1147 16.2566 12.4455 15.592C13.749 12.9733 16.9656 10.4175 19.9213 10.1581C20.1369 10.196 20.6856 10.1442 20.9307 10.128Z" fill="var(--fill-0, #6B6B6B)"/>
<path id="Vector_9" d="M20.069 9.11092C20.6944 8.58943 23.2542 8.69841 24.0012 9.02065C23.8535 9.30209 23.6337 9.70898 23.6629 10.01C23.7753 10.1584 23.8792 10.1366 24.0972 10.1829C23.5668 10.2012 22.8479 10.1536 22.3038 10.1319C22.467 9.35612 21.4807 9.3175 21.0432 9.6697C20.9041 9.78165 20.9343 9.96503 20.9307 10.128C20.6856 10.1442 20.1369 10.196 19.9213 10.1581C20.0111 10.1277 20.3303 10.1025 20.4414 10.0911C20.3791 9.70766 20.3636 9.37464 20.069 9.11092Z" fill="var(--fill-0, #FFFEFE)" fill-opacity="0.396078"/>
<path id="Vector_10" d="M10.9123 19.2238C10.8779 19.1095 10.9633 19.0672 10.948 18.9112C10.914 18.5644 10.7977 17.7134 11.2702 17.6603C11.6152 17.9067 11.3069 17.9406 11.5422 18.3098C11.4584 19.54 11.4127 20.3438 11.4901 21.586C11.3082 21.3603 11.2465 21.4623 11.0449 21.5817L10.9133 21.526C11.4196 21.0609 11.3127 19.7512 10.9123 19.2238Z" fill="var(--fill-0, #FFFEFE)" fill-opacity="0.027451"/>
<path id="Vector_11" d="M20.9307 10.128C20.9343 9.96503 20.9041 9.78165 21.0432 9.6697C21.4807 9.3175 22.467 9.35612 22.3038 10.1319L20.9307 10.128Z" fill="var(--fill-0, #FFFEFE)" fill-opacity="0.690196"/>
<path id="Vector_12" d="M10.9123 19.2238C11.3127 19.7512 11.4196 21.0609 10.9133 21.526C10.8304 20.8697 10.883 19.8984 10.9123 19.2238Z" fill="var(--fill-0, #FFFEFE)" fill-opacity="0.176471"/>
<path id="Vector_13" d="M41.4109 19.4026L41.5593 19.459C41.7327 19.2552 41.6412 18.5701 41.7958 18.1771C41.9048 18.2674 41.9007 18.4176 41.934 18.584C41.9493 19.3169 42.0628 22.3804 41.8111 22.8283C41.5344 22.8267 41.5444 22.5494 41.3843 22.9499C41.3877 22.2853 41.4009 21.6291 41.4207 20.965C41.4365 20.4327 41.5978 19.8982 41.4109 19.4026Z" fill="var(--fill-0, #FFFEFE)" fill-opacity="0.290196"/>
<path id="Vector_14" d="M20.8131 0H23.5576C23.5522 0.232345 23.557 0.322167 23.4803 0.546984L23.5118 0.614489C23.0244 0.661849 21.2028 0.62368 20.6414 0.608472C20.5127 0.262196 20.5969 0.247388 20.8131 0Z" fill="var(--fill-0, white)" fill-opacity="0.262745"/>
<path id="Vector_15" d="M2.18349 18.6686C2.22581 19.0385 2.24129 19.2259 2.22927 19.5966L2.32305 19.5956C2.34902 19.4841 2.38685 19.3408 2.40122 19.2308C2.5422 19.4007 2.57213 22.4634 2.53242 22.8998C2.5262 22.9664 2.51797 23.0328 2.50776 23.0989C2.4262 22.2643 2.25312 22.0256 2.09565 21.2654C2.00084 20.8077 1.94635 19.0089 2.18349 18.6686Z" fill="var(--fill-0, #FFFEFE)" fill-opacity="0.94902"/>
<path id="Vector_16" d="M41.3855 17.5725L41.4918 17.8231C41.6536 17.719 41.5961 17.7464 41.8188 17.77C41.9567 17.9099 41.9467 18.0069 41.9444 18.2277C41.9426 18.3465 41.9391 18.4653 41.934 18.584C41.9007 18.4176 41.9048 18.2674 41.7958 18.1771C41.6412 18.5701 41.7327 19.2552 41.5593 19.459L41.4109 19.4026L41.3855 17.5725Z" fill="var(--fill-0, #FFFEFE)" fill-opacity="0.215686"/>
</g>
</svg>
