<svg preserveAspectRatio="none" width="100%" height="100%" overflow="visible" style="display: block;" viewBox="0 0 135.453 41.33" fill="none" xmlns="http://www.w3.org/2000/svg">
<g id="cash home buyer on fox [Vectorized]">
<path id="Vector" d="M75.8019 34.4897C74.6444 35.0779 74.2397 35.5043 73.198 36.1042C72.4784 36.5238 71.7138 36.8613 70.9188 37.1106C70.5941 37.2126 70.0835 37.3224 69.7674 37.44C69.3871 37.5814 69.1344 37.8442 68.7045 37.8997C67.811 38.015 66.9214 38.0763 66.0348 38.2113C65.1642 38.3439 64.4039 38.1778 63.5439 38.0962C62.7233 38.0183 61.9052 38.0227 61.093 37.8868C60.8419 37.8343 60.6058 37.4721 60.3695 37.4227C55.6391 36.4345 51.9555 32.653 49.6739 28.5531C49.32 27.9171 49.2107 27.3436 48.9532 26.6623C48.7336 26.0813 48.667 25.4592 48.5308 24.8561C48.3459 24.1626 48.1671 23.5475 48.0852 22.8323C47.594 18.6633 48.5559 14.4525 50.8088 10.9101C50.9957 10.6207 51.3992 10.3223 51.5374 10.0872C52.355 8.69636 53.4515 7.54633 54.8753 6.76562C55.3073 6.47903 55.7362 5.91982 56.1665 5.65795C62.3051 1.92144 70.0002 2.58265 75.667 6.87976C76.9395 7.8449 77.9752 9.64946 79.1763 10.6192C79.2034 10.7193 79.2887 11.0409 79.335 11.1011C80.72 12.8838 81.1796 14.9385 81.9098 17.0156C81.9475 17.1233 81.9574 17.5846 81.9607 17.7197C81.9918 18.3482 82.0256 19.2955 82.0077 19.9287C82.0434 20.5469 81.9892 21.0703 82.0137 21.5969C82.0011 22.1696 82.0322 23.7689 81.8913 24.2393C81.5487 25.3779 81.3688 25.8133 81.2557 27.0446C80.7173 27.4669 79.9217 29.1949 79.7874 29.8672C78.9276 30.5853 78.4091 31.8139 77.6749 32.6759C77.2219 33.2074 76.0585 33.9237 75.8019 34.4897ZM66.0095 30.6193C66.723 30.2197 67.7177 29.8046 67.9406 28.8141C68.2138 27.6019 68.1602 25.8629 68.1615 24.6051L68.1628 19.7846C68.1628 17.6728 68.1939 15.5572 68.1086 13.4482C68.0319 11.5447 66.4115 10.2212 64.5288 10.5348C63.2656 10.8675 62.3741 11.7291 62.3362 13.0697C62.3064 14.1251 62.3077 15.1651 62.307 16.2203L62.306 21.8271L62.3085 26.0724C62.31 27.4745 61.9763 29.4794 63.4744 30.1931C64.1765 30.5277 65.2687 31.1313 66.0095 30.6193Z" fill="var(--fill-0, #6B6B6B)"/>
<path id="Vector_2" d="M97.5338 2.76853C98.2442 2.61362 107.366 2.56538 108.148 2.73063C107.439 4.98505 103.771 9.89678 103.564 11.4761C102.314 12.7462 101.592 14.7981 100.68 16.2818C99.774 17.7562 99.3321 18.4157 98.6628 20.076C100.238 22.4991 101.554 25.1697 103.026 27.663L106.469 33.5785C106.851 34.2329 107.447 34.9994 107.715 35.6614C108.088 36.5858 108.841 37.4733 109.154 38.3753L109.1 38.4669C108.667 38.6707 107.652 38.6053 107.13 38.5973C105.049 38.6281 102.956 38.5945 100.874 38.6082C99.8943 38.6146 98.6708 38.6499 97.7217 38.4463C97.5603 38.3146 97.3989 37.5118 97.2891 37.2615C96.9948 36.5487 96.4366 35.9347 96.0768 35.253C95.4458 34.0563 94.8466 32.8624 94.1621 31.6912C93.9299 31.3642 93.6475 30.334 93.3056 30.1878C92.6779 29.9199 92.4173 30.393 92.2116 30.801C91.9927 31.235 91.75 31.8021 91.5377 32.1281C90.9107 33.0889 90.4351 34.0034 89.9669 35.0445C89.2645 36.2778 88.6143 37.2246 88.0581 38.56C86.5316 38.6887 84.0157 38.5897 82.394 38.6126C81.214 38.6293 78.0943 38.6763 77.1293 38.5176C77.3661 37.4128 78.1538 36.2623 78.7259 35.2717L81.0434 31.2576C81.6935 30.1523 83.0911 27.429 83.8907 26.596C83.9244 25.8033 84.4753 25.1755 84.8788 24.4963C85.6103 23.2657 86.4033 22.0749 87.0025 20.7688C87.1507 20.4455 87.2783 19.9356 87.1612 19.563C86.6533 18.4827 86.0819 17.5319 85.3689 16.5796C85.1943 16.3461 84.7869 15.1859 84.5918 14.8755C84.392 14.5574 84.2207 14.4711 84.0111 14.1945C83.9542 14.1202 83.9469 13.7941 83.8642 13.6552L80.7934 8.4335C80.2583 7.50335 79.6763 6.64051 79.2008 5.66326C78.9236 5.0951 78.4078 4.58561 78.2219 3.93134C78.1333 3.62067 77.87 3.13304 77.9937 2.80377C78.0294 2.72707 78.1458 2.70786 78.2431 2.67078C79.8694 2.58867 82.0242 2.69083 83.6896 2.66161C84.9377 2.63972 87.6593 2.59868 88.8213 2.75145C90.2076 4.84435 91.2526 7.32731 92.5555 9.49677C92.7348 9.79561 92.7705 9.96655 93.1587 10.0206C93.8062 9.54624 96.2534 4.00773 97.5338 2.76853Z" fill="var(--fill-0, #6B6B6B)"/>
<path id="Vector_3" d="M26.1142 2.74706C26.2016 2.7264 26.2897 2.70899 26.3784 2.69488C26.9508 2.60369 29.2043 2.64484 29.8772 2.64482L37.0884 2.64626L43.9014 2.64189C45.0027 2.64166 46.1878 2.61348 47.2874 2.68051C47.4714 2.69172 47.8179 2.96266 47.9803 3.07952C48.0984 3.32791 48.1162 7.97742 48.1508 8.69755C48.1361 9.62698 48.1394 10.5206 48.2633 11.4425C48.2995 11.7112 48.3488 11.8536 48.2822 12.1303C48.1961 12.2659 48.103 12.4747 47.9483 12.4833C47.0725 12.5317 46.0779 12.4396 45.2106 12.4533C42.3779 12.498 39.5086 12.4032 36.6838 12.5072C36.4364 12.9203 36.2498 13.1856 36.2318 13.6751C36.1571 14.1283 36.1818 14.6572 36.1874 15.1211C36.1883 15.5803 36.1944 16.5405 36.5036 16.9112C36.6354 17.0693 37.0916 17.0926 37.2962 17.0914L42.5469 17.0409C43.5696 17.0372 45.182 16.8577 46.0186 17.4772C46.2384 17.64 46.1959 18.2533 46.1945 18.5271C46.1781 20.1963 46.1723 21.8656 46.177 23.5349C46.177 24.6437 46.2158 26.0437 46.08 27.1241L39.9836 27.1181C39.4418 27.118 36.3694 26.9662 36.2365 27.4251C36.0844 28.1029 36.1176 30.2637 36.1181 31.0298L36.188 38.3148C36.1707 38.3684 36.0966 38.4524 36.059 38.5001C35.899 38.5789 35.6169 38.6308 35.458 38.619C34.1276 38.5205 27.1028 38.7751 26.2533 38.5041C26.0731 37.9796 26.1859 31.7071 26.1861 30.6077L26.1861 13.5256C26.1857 9.96813 26.2436 6.28932 26.1142 2.74706Z" fill="var(--fill-0, #6B6B6B)"/>
<path id="Vector_4" d="M36.2365 27.4251C36.2528 27.6933 36.2742 27.9199 36.2434 28.1882C36.2292 28.3735 36.197 29.0414 36.3146 29.1698C36.412 29.2761 36.3963 29.2455 36.4596 29.4227C36.5481 29.0888 36.49 28.7873 36.5589 28.5626C36.5881 30.6186 36.5561 32.7205 36.5671 34.7791C36.5704 35.416 36.6274 37.8406 36.5404 38.2873C36.4608 37.7375 36.575 36.4009 36.4006 36.0999C36.2353 36.4894 36.2737 37.8096 36.255 38.306L36.188 38.3148L36.1181 31.0298C36.1176 30.2637 36.0844 28.1029 36.2365 27.4251Z" fill="var(--fill-0, #6B6B6B)"/>
<path id="Vector_5" d="M82.0077 19.9287C82.0487 20.0558 82.0613 20.0954 82.1294 20.2135C82.2207 19.9998 82.1598 18.8909 82.2094 18.4565C82.3741 18.2407 82.1962 18.4765 82.5805 18.4199C82.6076 19.4666 82.6843 21.6442 82.5573 22.658L82.4971 22.7166C81.9912 22.4498 82.2961 21.4352 82.1149 21.2024L82.0137 21.5969C81.9892 21.0703 82.0434 20.5469 82.0077 19.9287Z" fill="var(--fill-0, #6B6B6B)"/>
<path id="Vector_6" d="M48.1508 8.69755C48.1934 8.89058 48.2354 9.06119 48.2512 9.25957C48.2888 9.16157 48.3753 8.90539 48.4366 8.84171L48.5634 8.8468L48.4904 8.81255C48.6858 8.99334 48.707 9.1133 48.7029 9.39547C48.6952 9.91543 48.784 11.7305 48.6674 12.1216L48.2822 12.1303C48.3488 11.8536 48.2995 11.7112 48.2633 11.4425C48.1394 10.5206 48.1361 9.62698 48.1508 8.69755Z" fill="var(--fill-0, #6B6B6B)"/>
<path id="Vector_7" d="M81.9607 17.7197C82.1678 17.427 81.9984 17.2441 82.1486 17.0801L82.3562 17.06C82.6526 17.3631 82.4488 18.0561 82.5805 18.4199C82.1962 18.4765 82.3741 18.2407 82.2094 18.4565C82.1598 18.8909 82.2207 19.9998 82.1294 20.2135C82.0613 20.0954 82.0487 20.0558 82.0077 19.9287C82.0256 19.2955 81.9918 18.3482 81.9607 17.7197Z" fill="var(--fill-0, #6B6B6B)"/>
<path id="Vector_8" d="M36.255 38.306C36.2737 37.8096 36.2353 36.4894 36.4006 36.0999C36.575 36.4009 36.4608 37.7375 36.5404 38.2873C36.4721 38.3374 36.4006 38.3983 36.3344 38.4523L36.255 38.306Z" fill="var(--fill-0, #6B6B6B)"/>
<path id="Vector_9" d="M36.2318 13.6751C36.2583 13.8537 36.2505 14.0619 36.3637 14.1513L36.4659 14.1264C36.6173 14.3781 36.5049 14.798 36.5997 15.2093L36.5575 15.2709L36.4694 15.195L36.3398 15.3627C36.2997 15.2615 36.2634 15.2002 36.1874 15.1211C36.1818 14.6572 36.1571 14.1283 36.2318 13.6751Z" fill="var(--fill-0, #6B6B6B)"/>
<path id="Vector_10" d="M36.2434 28.1882C36.3092 27.9674 36.2825 27.9221 36.4438 27.7943C36.5768 27.937 36.5709 28.2457 36.5647 28.4383C36.5633 28.4798 36.5614 28.5212 36.5589 28.5626C36.49 28.7873 36.5481 29.0888 36.4596 29.4227C36.3963 29.2455 36.412 29.2761 36.3146 29.1698C36.197 29.0414 36.2292 28.3735 36.2434 28.1882Z" fill="var(--fill-0, #6B6B6B)"/>
</g>
</svg>
