<svg preserveAspectRatio="none" width="100%" height="100%" overflow="visible" style="display: block;" viewBox="0 0 135.453 41.33" fill="none" xmlns="http://www.w3.org/2000/svg">
<g id="sell my house fast company on nbc [Vectorized]">
<path id="Vector" d="M95.6046 11.4384C95.969 11.349 99.4538 11.3743 99.9426 11.4171C101.664 11.5676 104.59 11.1518 106.118 11.4921C107.439 11.7085 108.336 12.1237 109.336 13.0595C109.69 13.3891 109.998 13.8252 110.377 14.1259C110.5 14.7806 110.559 14.8627 110.994 15.3676C111.058 16.2139 111.198 18.2632 110.949 19.0429C110.768 19.6138 110.521 19.3662 110.391 20.4769C109.797 20.7482 109.031 21.6543 108.668 22.1925C110.313 23.6787 111.595 24.2958 112.098 26.6951C112.184 27.1077 112.438 28.0463 112.44 28.4614C112.443 29.7902 111.294 32.0401 110.437 33.0137C110.065 33.4364 108.607 34.2487 108.044 34.502C107.889 34.5717 107.134 34.6321 106.975 34.7223C106.73 34.7446 105.978 34.7394 105.802 34.779C103.838 34.7125 101.712 34.7611 99.7396 34.7504C98.8401 34.7456 96.7329 34.7096 95.881 34.8127C95.6125 34.7226 95.4617 34.6861 95.2362 34.5102C95.0338 34.2001 95.1164 20.7337 95.1164 19.4495L95.1171 14.5017C95.1171 13.7529 95.0854 12.3124 95.176 11.6118C95.3195 11.4568 95.3717 11.487 95.6046 11.4384ZM99.8798 25.4486C99.4353 25.8644 99.2706 30.4353 100.23 30.7204C100.332 30.7459 100.435 30.7659 100.538 30.78C101.501 30.9095 102.687 30.8285 103.667 30.8466C104.971 30.8705 105.696 30.0476 106.609 29.3431C107.519 26.8524 106.551 24.9332 103.826 24.7813C102.668 24.7168 101.407 24.7159 100.254 24.812L99.8798 25.4486ZM100.695 15.2262C100.345 15.1126 99.7058 15.2601 99.6463 15.6555C99.4492 16.9716 99.5431 18.3766 99.5643 19.7077C99.5769 20.3732 99.6443 20.4599 100.171 20.8236C100.23 20.8312 100.328 20.8499 100.38 20.8379C101.197 20.7326 102.597 20.9302 103.474 20.7831C104.716 20.5747 105.303 19.7223 105.977 18.7826C106.035 17.9381 106.111 17.1207 105.572 16.3863C104.381 14.7645 102.109 15.489 100.718 15.2308L100.695 15.2262Z" fill="var(--fill-0, #6B6B6B)"/>
<path id="Vector_2" d="M100.38 20.8379C100.328 20.8499 100.23 20.8312 100.171 20.8236C99.6443 20.4599 99.5769 20.3732 99.5643 19.7077C99.5431 18.3766 99.4492 16.9716 99.6463 15.6555C99.7058 15.2601 100.345 15.1126 100.695 15.2262C100.609 15.2461 100.327 15.2836 100.316 15.3694C100.231 16.0068 100.137 20.6411 100.38 20.8379Z" fill="var(--fill-0, white)" fill-opacity="0.847059"/>
<path id="Vector_3" d="M100.23 30.7204C99.2706 30.4353 99.4353 25.8644 99.8798 25.4486C100.036 25.8163 100.058 25.5383 100.164 25.7914C99.6721 26.2662 99.9783 28.1219 99.8566 28.8294C99.8322 28.9716 99.8024 29.6851 99.8434 29.7983C100.003 29.8303 100.115 29.7904 100.217 29.6505C100.154 30.0575 100.078 30.327 100.23 30.7204Z" fill="var(--fill-0, white)" fill-opacity="0.784314"/>
<path id="Vector_4" d="M100.164 25.7914C100.29 26.4901 100.285 28.8829 100.217 29.6505C100.115 29.7904 100.003 29.8303 99.8434 29.7983C99.8024 29.6851 99.8322 28.9716 99.8566 28.8294C99.9783 28.1219 99.6721 26.2662 100.164 25.7914Z" fill="var(--fill-0, white)" fill-opacity="0.882353"/>
<path id="Vector_5" d="M72.5498 27.7752C72.616 26.7189 72.565 25.0837 72.5644 23.9925L72.5624 16.73C72.5631 15.5671 72.4486 12.1304 72.8164 11.2205C72.903 11.1451 72.9242 11.1003 73.0406 11.0821C73.3104 11.0395 73.6305 11.288 73.8131 11.4559C75.3587 12.8786 76.8482 14.358 78.3284 15.8478C78.425 15.9449 78.5367 16.0215 78.6611 16.0813C79.0096 16.2251 79.1908 16.5727 79.4501 16.8269C80.126 17.5216 80.8086 18.2184 81.4984 18.8997C81.6578 19.0572 81.9111 19.1828 82.0976 19.3077C82.2524 19.4115 82.4052 19.5161 82.556 19.6249C82.6711 20.0654 84.0831 21.2377 84.5044 21.5682C84.8649 21.8425 84.8252 22.1058 85.273 22.4136C85.527 22.7138 86.7148 23.8485 87.027 24.0258C87.8749 23.4645 86.859 12.6583 87.5614 11.5118C87.7677 11.3738 88.0806 11.3615 88.3359 11.3283C89.4536 11.4712 90.6666 11.3769 91.7903 11.3298C92.0317 11.3831 92.0734 11.4017 92.2295 11.5926C92.291 12.1733 92.2341 13.1462 92.2229 13.7604C92.2123 14.7818 92.2083 15.8033 92.2116 16.8247L92.2123 28.9235C92.2123 30.7294 92.2222 32.5147 92.2936 34.3202C92.3016 34.5191 92.2387 34.8074 92.1574 34.99C91.9431 35.1349 91.8115 35.142 91.5562 35.0561C91.49 34.5185 89.7546 33.2021 89.2797 32.7406C88.7433 32.2197 88.189 31.5228 87.5978 31.0915L87.5687 31.0139C86.9893 30.3429 85.4873 28.8654 84.8193 28.2657L84.7961 28.2021C84.6685 28.0438 84.3847 27.8516 84.2128 27.7244C83.8821 27.3929 83.7352 27.2406 83.3543 26.9624C83.3351 26.8806 82.9482 26.4554 82.8649 26.3594L82.845 26.3143C82.3655 25.842 81.9065 25.5105 81.3873 24.9259C81.2577 24.7403 80.8417 24.3849 80.6532 24.2163L80.1327 23.7937L79.7914 23.4599C79.798 23.3636 79.7345 23.2765 79.6406 23.253L79.3906 22.9504C78.9501 22.5915 78.4521 21.8541 77.874 21.9831C77.6796 22.139 77.6683 22.2371 77.6042 22.4731C77.4481 23.0946 77.4957 24.524 77.4964 25.226L77.5076 31.4179C77.5089 31.9844 77.5526 33.88 77.4845 34.3425C77.3171 34.5214 77.167 34.7054 76.9553 34.8263C76.534 34.728 73.7337 34.7853 73.1788 34.8036C72.9949 34.6974 72.6543 34.5703 72.5518 34.4527L72.5908 33.9161L72.5578 33.1835L72.5617 32.9707C72.5875 32.5712 72.5703 32.2923 72.5472 31.8971L72.5763 31.2784L72.5518 30.4664L72.5617 30.1713C72.6093 29.6929 72.5717 28.2625 72.5498 27.7752Z" fill="var(--fill-0, #6B6B6B)"/>
<path id="Vector_6" d="M27.913 2.0152C29.4355 1.92593 30.5762 1.69423 32.1033 2.04284C33.5077 2.36343 34.2847 3.01133 35.2182 4.03953C35.451 4.29601 35.7348 4.47968 35.9325 4.79941C37.2607 6.94694 36.9104 9.60278 36.6341 11.9798C36.558 12.6334 36.5839 14.0115 36.4609 14.5515L36.3109 14.5234C35.9805 15.4674 35.9479 19.0853 35.8007 19.363C35.6873 19.3219 35.7234 19.3184 35.6144 19.3352C35.2514 21.3368 35.0798 22.4528 35.1899 24.4641L35.107 24.8043C35.025 24.8404 34.9728 24.8731 34.8835 24.868C34.4745 25.1985 34.5818 25.9339 34.5855 26.4371C34.5514 27.3735 34.4894 28.5576 34.5351 29.4875L34.4309 29.6856C34.2692 29.6689 34.2143 29.6572 34.0575 29.698C33.83 29.9961 33.8819 31.0374 33.8621 31.4485C33.8796 31.7553 33.8964 33.6068 33.6342 33.7437C32.592 32.9437 32.7614 32.7615 32.2543 31.5848L30.5128 27.5024L25.5828 15.9003C24.7306 13.8682 23.6955 11.9561 23.1469 9.81452C22.9637 9.09968 22.9992 8.21581 23.0926 7.48549C23.5298 7.0095 23.5601 5.99571 24.1801 5.03157C25.1159 3.57633 25.4748 3.7362 26.3822 2.71507C26.9362 2.53471 27.4654 2.3944 27.913 2.0152Z" fill="var(--fill-0, #6B6B6B)"/>
<path id="Vector_7" d="M39.6008 10.9086C39.9616 10.6905 41.2898 10.0008 41.0929 9.56733C40.6872 9.30361 39.2827 9.34528 38.7414 9.33714C38.5863 9.19807 38.5627 9.02488 38.5324 8.82478C38.2836 7.18534 39.1822 5.35735 40.1423 4.07244C40.9461 2.99661 42.6132 2.05773 43.9967 1.9186C45.2594 1.79163 46.7548 1.77843 48.0367 2.14655C48.2504 2.20791 49.0423 2.91443 49.2589 3.07809C49.4061 3.18933 49.8892 3.40775 49.9758 3.49277C50.6857 4.18985 51.4968 5.30203 51.9302 6.19211C52.0716 6.4824 52.1475 6.97551 52.1821 7.26495C52.1958 8.07053 52.1936 8.87636 52.1757 9.68187C52.1627 10.1706 52.2192 11.1865 51.9447 11.5353C51.2179 12.4587 50.9112 13.8901 50.4013 14.9471C49.5782 16.6537 48.8648 18.3489 48.2408 20.1396C48.0256 20.7575 47.5234 21.4329 47.2839 22.0595C46.7378 23.4707 46.2931 24.9389 45.6131 26.2949C45.4657 26.5889 44.9417 28.1029 44.8297 28.2428C44.3632 28.8259 42.6962 33.5643 42.4649 33.6841C42.2971 33.6503 42.1791 33.6449 42.0717 33.469C41.7499 32.942 41.8419 32.2123 41.7705 31.6247C41.7301 31.2919 41.4869 30.982 41.4431 30.6739C41.3011 29.6742 41.2465 28.647 41.1113 27.6467C41.0699 27.3402 41.0529 26.6748 40.8598 26.4759C40.7596 26.3726 40.7298 26.3156 40.7083 26.1642C40.5776 25.2407 40.5562 24.2515 40.4361 23.3315C40.3161 22.4117 40.1095 21.5097 39.9756 20.5816C39.8427 19.6594 39.8048 18.1211 39.4995 17.3039C39.3007 16.8472 39.2434 15.1083 39.2053 14.5435C39.2862 13.7485 38.9425 13.2763 38.9616 12.5353C39.0479 12.1303 39.4428 11.4995 39.6008 10.9086Z" fill="var(--fill-0, #6B6B6B)"/>
<path id="Vector_8" d="M16.5066 10.669C18.5419 10.6002 19.4872 10.6591 21.2482 11.8703C21.6149 12.1225 22.5726 12.9155 22.7647 13.2591C23.5097 14.5916 24.1585 16.0089 24.7832 17.4019C24.9831 17.8476 25.146 18.4188 25.3488 18.8936L28.577 26.2959L31.7881 33.5971C32.1352 34.3854 32.8509 35.5759 32.9838 36.4013L32.8798 36.4605C31.9679 36.4731 30.8903 35.3027 30.0759 34.9031C29.803 34.7691 29.3539 34.4343 29.1054 34.2384C27.8899 33.2337 26.1459 32.3847 24.8605 31.4371C24.5601 31.2156 23.9644 30.567 23.7377 30.4492C22.5298 29.8218 21.5399 28.9758 20.4417 28.2421L15.3804 24.82C14.7355 24.3794 14.0955 24.0566 13.4923 23.5701C11.2343 21.8437 10.0736 19.515 10.5094 16.6571C10.5978 16.0767 10.6246 15.3582 10.8878 14.8115C11.5738 13.387 12.6124 12.2064 14.0198 11.4619C14.3519 11.2863 14.6837 11.1799 14.9139 10.8812L16.5066 10.669Z" fill="var(--fill-0, #6B6B6B)"/>
<path id="Vector_9" d="M57.8666 10.6748C58.1525 10.6838 58.4383 10.6965 58.7239 10.7126C60.5086 10.8246 62.5077 11.9559 63.6166 13.3326C65.0353 15.0937 65.0852 17.4217 64.9473 19.5329C64.4953 20.0685 64.5863 20.3541 64.3409 20.8232C64.0459 21.3873 63.0898 22.5157 62.6174 22.9569C62.1754 23.2545 61.4757 23.9984 61.0063 24.2135C60.0072 24.6711 59.3589 25.3654 58.5098 25.9414C56.0797 27.5899 53.6445 29.2403 51.214 30.8861C50.1567 31.6021 48.2734 33.2108 47.1515 33.6304C46.6179 34.2689 43.5921 36.2614 42.7618 36.5776C43.1891 34.297 45.1602 30.5121 46.1071 28.2724L49.689 19.745C50.1127 18.7463 50.5834 17.4879 51.0437 16.5188C51.5133 15.5304 52.3137 13.7542 52.9726 12.9526C53.572 12.2234 55.4135 11.0637 56.352 10.8182C56.6051 10.752 57.555 10.6945 57.8666 10.6748Z" fill="var(--fill-0, #6B6B6B)"/>
<path id="Vector_10" d="M11.079 25.4049C12.1096 25.1706 14.1168 25.7128 15.0803 26.1826C15.4802 26.3777 16.1591 26.9247 16.5861 27.1785C18.2148 28.1468 19.7035 29.3696 21.2417 30.4307C23.0519 31.6795 24.7716 32.9375 26.6176 34.1369C27.4766 34.6949 28.2105 35.384 29.1908 35.9875C29.9778 36.6283 30.9433 37.1187 31.7363 37.7193C32.4895 38.29 32.3257 38.2123 33.1715 38.5583C33.2946 38.6085 33.3922 38.7065 33.4419 38.8298C33.5299 39.0504 33.4623 39.2435 33.3722 39.4459C32.8971 39.5852 28.3725 39.4861 27.613 39.4867L16.1853 39.4905C14.106 39.4905 11.6975 39.5916 9.63916 39.2855C9.55397 39.2728 8.40587 38.535 8.2142 38.4272C7.11226 37.8074 5.51282 35.8735 5.30265 34.6247C5.12736 33.5832 5.02159 31.2055 5.23382 30.1282C5.31849 29.6984 5.57409 29.2726 5.80588 28.9072C7.40876 26.3803 8.30924 26.0384 11.079 25.4049Z" fill="var(--fill-0, #6B6B6B)"/>
<path id="Vector_11" d="M63.2104 25.4086C63.6689 25.2682 66.5596 25.9826 67.049 26.3977C67.6443 26.9024 69.1351 28.1492 69.5213 28.8046C70.4413 30.3647 70.8163 32.7986 70.3897 34.5465C69.9684 34.8832 69.7965 35.6872 69.4869 36.2594C69.2138 36.769 68.8672 37.2359 68.4591 37.6454C67.9882 38.1155 66.6033 39.1623 66.0013 39.2686C64.1258 39.6 61.5756 39.4886 59.6511 39.4889L49.6373 39.4867C48.5577 39.4888 47.5091 39.5156 46.3772 39.492C45.0539 39.4327 43.5894 39.6367 42.3056 39.3144C42.1373 39.2722 42.0346 38.8171 42.4 38.6089C45.4367 36.8793 48.1745 34.5533 51.1531 32.7108C51.6191 32.4226 52.0704 31.9025 52.5471 31.6012C54.1203 30.5482 55.7355 29.5508 57.235 28.3966C57.5826 28.1195 58.1764 27.8495 58.4848 27.5682C60.0353 26.1547 61.2065 25.8457 63.2104 25.4086Z" fill="var(--fill-0, #6B6B6B)"/>
<path id="Vector_12" d="M130.347 34.279C130.234 34.5006 130.355 34.8285 129.978 34.9561C128.265 35.5353 126.329 35.9497 124.517 35.8527C123.878 35.8186 123.099 35.4429 122.464 35.3024C122.03 35.2009 121.735 35.2358 121.325 35.0825C118.332 33.9415 115.905 31.6748 114.563 28.7675C113.675 26.8199 112.862 23.9248 113.123 21.766C113.139 21.4857 113.36 21.1251 113.403 20.8667C114.231 15.825 118.436 11.9587 123.31 10.8242C124.564 10.5325 129.788 10.5085 130.4 11.8819C130.288 12.219 130.277 14.9453 130.374 15.2176C130.304 15.4282 130.257 15.6553 130.084 15.7862C129.864 15.8521 128.101 15.2202 127.714 15.1289C124.321 14.3311 120.537 16.234 119.044 19.3594C118.662 20.1593 118.33 20.957 118.467 21.8624L118.43 22.2522C118.178 22.4402 117.925 22.2154 117.933 22.6087C117.915 22.9408 117.893 23.2208 117.928 23.5541C118.064 23.9503 118.12 23.5931 118.417 23.8128L118.468 24.2277C118.136 28.723 123.771 32.1684 127.801 31.0458C128.59 30.826 129.57 30.276 130.365 30.3904C130.263 31.1755 130.332 33.4026 130.347 34.279Z" fill="var(--fill-0, #6B6B6B)"/>
<path id="Vector_13" d="M84.5044 21.5682C84.64 21.2598 84.5243 21.1245 84.7452 20.9907L84.8484 21.0507C84.8828 21.3366 84.8451 21.4027 85.0071 21.6067C85.2148 21.6311 85.2763 21.6191 85.4846 21.5872C85.5759 21.9142 85.5534 22.1408 85.7717 22.2794C85.943 22.2869 86.1235 22.3056 86.2882 22.2622C86.4258 21.9892 86.5521 22.2053 86.5614 21.9543C86.5991 20.9763 86.5799 19.8139 86.5792 18.8469L86.5759 10.8101C87.7042 10.7311 89.0508 10.8024 90.1931 10.7997C90.8644 10.798 92.1918 10.7129 92.7791 10.8576L92.8955 10.8105C92.9577 11.7977 92.9259 12.9719 92.9266 13.9784L92.9272 19.3799L92.9253 36.1059H91.2718C91.2718 35.8619 91.3121 35.5313 91.2017 35.3498C90.8287 35.2521 90.8604 35.3958 90.6157 35.2112C90.6044 34.9262 90.6626 34.812 90.5092 34.6531L90.0747 34.6498L89.9979 34.5659C90.0191 34.3825 90.0436 34.2644 89.99 34.085C89.6282 33.8433 89.3154 34.1443 89.15 33.9001L89.1547 33.4282L89.0561 33.3312C88.8888 33.333 88.7645 33.3329 88.5978 33.3181C88.4271 32.9556 88.6765 33.0257 88.488 32.764C88.1758 32.7043 88.0713 32.7797 87.9033 32.627C87.8987 32.3705 87.9496 32.0837 87.8326 31.9082C87.486 31.8137 87.4099 31.9587 87.2373 31.8148L87.2347 31.3803L87.1355 31.2848C86.9483 31.2903 86.8411 31.2993 86.6586 31.2618C86.4423 30.9287 86.7413 30.8918 86.4668 30.6311C86.3233 30.6236 86.1804 30.6208 86.0369 30.6228C85.8504 30.3434 86.1374 30.204 85.8795 29.9819C85.5904 29.9393 85.2584 30.0066 85.1202 29.8969C85.1268 29.6477 85.1685 29.4668 85.0217 29.2976L84.5613 29.2849C84.4224 29.0483 84.6612 28.6181 84.4264 28.5257C84.1784 28.428 84.058 28.5936 83.8609 28.4437C83.8662 28.2568 83.8655 28.1316 83.8517 27.9454L83.7432 27.8353C83.5825 27.8415 83.3755 27.8601 83.2233 27.824C83.2008 27.6412 83.1975 27.5314 83.1969 27.3468C82.8761 27.1015 82.8748 27.3854 82.5474 27.1428C82.5117 26.8106 82.6023 26.8063 82.4442 26.5883C82.1955 26.5689 81.8787 26.627 81.7458 26.527L81.7511 26.0454C81.4806 25.7739 81.3298 26.0716 81.0844 25.7987C81.091 25.6157 81.093 25.4327 81.0917 25.2497C80.7616 24.9338 80.4276 25.4184 80.4872 24.786C80.4991 24.6601 80.5163 24.6134 80.4343 24.5267L79.8502 24.4471C79.8086 24.129 79.8913 24.0466 79.7385 23.8622C79.425 23.7819 79.2742 23.8729 79.1551 23.7179C79.1598 23.4494 79.2067 23.4103 79.0698 23.2224C78.7371 23.1973 78.4428 23.2048 78.1101 23.2109V35.3124C76.4897 35.3141 74.0161 35.3897 72.4638 35.2949C72.321 34.9945 72.5293 34.9048 72.3382 34.6861C72.0604 34.6213 71.8461 34.641 71.5624 34.6511C71.5518 34.3645 71.5068 34.0125 71.6391 33.7683C71.8613 33.5949 71.9678 33.6666 72.2496 33.7146C72.3951 33.6022 72.3607 33.6596 72.4103 33.4885C71.9857 33.1811 71.5538 33.6073 71.5075 32.9886C71.4923 32.7837 71.4605 32.7804 71.5392 32.5706C71.899 32.2445 72.153 32.5056 72.4123 32.2452C72.4023 32.0065 72.438 32.0774 72.2945 31.9202C72.0531 31.8665 71.6887 31.8674 71.5584 31.7332C71.4704 31.5679 71.5128 31.1872 71.6517 31.066C72.0379 31.01 72.075 31.1611 72.4004 31.019L72.487 30.8656C72.3421 30.5305 71.8891 30.6103 71.5624 30.6173C71.5564 30.3792 71.5187 29.9172 71.6054 29.7191L71.645 29.7227C72.1305 29.7628 72.1193 29.5648 72.4076 29.5154L72.3752 29.4147C71.7383 29.2261 71.2938 29.2564 71.567 28.3678C71.5736 28.3464 71.5802 28.3249 71.5875 28.3036C71.8236 28.4018 71.8732 28.4177 72.1285 28.4202C72.4004 28.2588 72.4123 27.9993 72.3197 27.7111L72.3481 27.6774L72.5168 27.7241L72.4407 27.6682C72.4883 27.7073 72.5194 27.7238 72.5498 27.7752C72.5717 28.2625 72.6093 29.6929 72.5617 30.1713C72.4837 30.0293 72.4447 29.9266 72.3025 29.8502C72.0862 29.8063 72.0492 29.8003 71.8527 29.892C71.7052 30.0607 71.7383 29.9816 71.7244 30.209C71.985 30.5707 72.3243 30.322 72.5518 30.4664L72.5763 31.2784C72.2701 31.2793 71.9671 31.2201 71.77 31.3857L71.7634 31.5626C72.1808 31.8528 72.3613 31.3912 72.5472 31.8971C72.5703 32.2923 72.5875 32.5712 72.5617 32.9707C72.4744 32.65 72.4903 32.545 72.1047 32.5149C71.8441 32.6219 71.9301 32.5567 71.7575 32.7825C71.7363 32.9998 71.7185 32.9192 71.8494 33.1086C72.1173 33.17 72.4195 33.0926 72.5578 33.1835L72.5908 33.9161C72.3832 33.8263 72.153 33.853 71.9235 33.8585C71.7403 34.0044 71.7919 33.9329 71.7383 34.1867C71.8157 34.4167 71.7595 34.3526 71.9499 34.4725C72.2846 34.4471 72.3957 34.3363 72.5518 34.4527C72.6543 34.5703 72.9949 34.6974 73.1788 34.8036C73.4407 34.844 73.7033 34.8773 73.9374 35.0129L73.7965 35.0185C74.7893 35.2237 75.3859 35.1218 76.3839 35.0939C76.5089 35.1162 77.6763 35.049 77.9117 35.0478C77.9137 34.7633 77.9573 34.5519 77.8218 34.3351C77.628 34.3353 77.6948 34.3081 77.5572 34.4409L77.4845 34.3425C77.5526 33.88 77.5089 31.9844 77.5076 31.4179L77.4964 25.226C77.4957 24.524 77.4481 23.0946 77.6042 22.4731C77.6624 22.7107 77.6763 22.7609 77.8628 22.9161C78.1558 23.0028 79.1736 23.0471 79.3906 22.9504L79.6406 23.253C79.5592 23.2325 79.4733 23.2654 79.4263 23.3352C79.3793 23.4049 79.3807 23.4968 79.4303 23.5648C79.4799 23.6328 79.5672 23.6625 79.6479 23.639C79.7285 23.6155 79.7861 23.5439 79.7914 23.4599L80.1327 23.7937C80.0301 24.0451 80.0143 23.9794 80.0685 24.1974C80.2477 24.2878 80.4607 24.2879 80.6532 24.2163C80.8417 24.3849 81.2577 24.7403 81.3873 24.9259C81.3225 25.187 81.2352 25.417 81.3582 25.6495C82.4264 25.6387 81.6128 26.807 82.845 26.3143L82.8649 26.3594L82.6314 26.4723C82.6069 26.7135 82.601 26.7677 82.724 26.9742C82.8787 27.1115 82.9105 27.1182 83.1202 27.1322C83.2385 27.0833 83.2663 27.0485 83.3543 26.9624C83.7353 27.2406 83.8821 27.3929 84.2128 27.7244C84.0461 27.9219 84.0891 27.8329 84.0388 28.0862C84.1989 28.388 84.5355 28.3743 84.7961 28.2021L84.8193 28.2657C84.7068 28.4388 84.7042 28.5264 84.6705 28.7322C84.8259 29.2009 85.0812 28.9874 85.2935 29.2122C85.3656 29.2889 85.2393 29.5219 85.3953 29.7457C85.6572 29.768 85.9694 29.7115 86.1268 29.8149C86.2353 30.2296 86.0752 30.2493 86.3021 30.4069C86.3775 30.4139 86.7518 30.438 86.7638 30.4664C86.9787 30.9737 86.7347 31.2323 87.5687 31.0139L87.5978 31.0915C87.3497 31.2577 87.4086 31.3109 87.5237 31.5882C87.7816 31.776 87.7671 31.5669 88.0832 31.7777C88.1183 32.0629 88.0396 32.3232 88.1507 32.4784C88.3266 32.5007 88.5012 32.5246 88.6765 32.5504C88.8888 32.8816 88.5998 32.8537 88.8676 33.1165C89.1487 33.1363 89.1917 33.088 89.3551 33.2554C89.3676 33.485 89.3339 33.6279 89.4569 33.7874C89.7142 33.7917 90.0006 33.7416 90.1792 33.8599C90.3002 34.2077 90.1058 34.1814 90.2909 34.4402C90.4695 34.4559 90.5687 34.4577 90.748 34.4507C90.9219 34.6658 90.7414 34.8836 90.9583 35.0979C91.1944 35.1181 91.2956 35.1188 91.5304 35.1069C91.5172 35.1622 91.5053 35.2179 91.4953 35.2739C91.4596 35.4801 91.4265 35.6657 91.5489 35.838C91.7215 35.9315 92.4722 35.9096 92.6151 35.7756C92.8155 35.3711 92.7262 30.9639 92.7262 30.2426L92.7288 18.7186L92.7268 13.8351C92.7268 13.3791 92.7341 11.4075 92.6402 11.0425C92.5192 10.9306 92.4524 10.8797 92.2831 10.8667C92.1157 10.8548 91.9497 10.9076 91.8194 11.0142L91.7903 11.3298C90.6666 11.3769 89.4536 11.4712 88.3359 11.3283C88.6811 11.2712 89.0508 11.3332 89.2942 11.1471C89.6097 10.9048 89.7552 10.9437 90.1302 10.9318C89.3273 10.8591 87.6414 10.9101 86.7743 10.9111L86.7763 18.1994C86.7763 19.4744 86.8186 21.0405 86.7505 22.278C86.5111 22.4886 85.6295 22.4174 85.273 22.4136C84.8252 22.1058 84.8649 21.8425 84.5044 21.5682ZM71.9843 29.1747C72.2085 29.1188 72.3104 29.1412 72.4123 28.968C72.4751 28.8605 72.4916 28.7319 72.4572 28.6121C72.45 28.5875 72.4427 28.5691 72.4341 28.5449C72.3322 28.5169 72.3441 28.5033 72.2582 28.5277C71.9261 28.5713 71.9519 28.5145 71.7515 28.7157C71.7059 28.9437 71.7833 29.058 71.9843 29.1747Z" fill="var(--fill-0, white)" fill-opacity="0.0705882"/>
<path id="Vector_14" d="M91.7903 11.3298L91.8194 11.0142C91.9497 10.9076 92.1157 10.8548 92.2831 10.8667C92.4524 10.8797 92.5192 10.9306 92.6402 11.0425C92.7341 11.4075 92.7268 13.3792 92.7268 13.8351L92.7288 18.7186L92.7262 30.2426C92.7262 30.9639 92.8155 35.3711 92.6151 35.7756C92.4722 35.9096 91.7215 35.9315 91.5489 35.838C91.4265 35.6657 91.4596 35.4801 91.4953 35.2739C91.5053 35.2179 91.5172 35.1622 91.5304 35.1069L91.5562 35.0561C91.8115 35.142 91.9431 35.1349 92.1574 34.99C92.2387 34.8074 92.3016 34.5191 92.2936 34.3202C92.2222 32.5147 92.2123 30.7294 92.2123 28.9235L92.2116 16.8248C92.2083 15.8033 92.2123 14.7818 92.2229 13.7604C92.2341 13.1462 92.291 12.1733 92.2295 11.5926C92.0734 11.4017 92.0317 11.3831 91.7903 11.3298Z" fill="var(--fill-0, white)" fill-opacity="0.0117647"/>
<path id="Vector_15" d="M95.6045 11.4384C95.8387 11.0946 96.0014 11.1508 96.4868 11.0324L96.133 11.0614C97.3731 10.7714 99.6542 10.9313 100.999 10.8975C101.774 10.8781 105.57 10.8359 106.028 11.1053C106.133 11.225 106.116 11.3308 106.118 11.4921C104.59 11.1518 101.664 11.5676 99.9426 11.4171C99.4538 11.3743 95.969 11.349 95.6045 11.4384Z" fill="var(--fill-0, white)" fill-opacity="0.0470588"/>
<path id="Vector_16" d="M95.881 34.8127C96.7329 34.7096 98.8401 34.7456 99.7396 34.7504C101.712 34.7611 103.838 34.7125 105.802 34.779L105.776 34.7903C105.237 35.0224 103.736 34.9553 103.075 34.9585C103.816 34.9432 105.019 34.8402 105.662 35.1249C104.774 35.2058 103.056 35.1526 102.091 35.1532C100.193 35.1544 98.1284 35.1958 96.2441 35.0919C96.3896 35.0386 96.7051 34.9607 96.8671 34.916C96.5946 34.9026 96.1204 34.8998 95.881 34.8127ZM100.587 34.9477C100.226 34.9434 99.8097 34.9285 99.4532 34.9471C99.8189 34.9519 100.225 34.9663 100.587 34.9477Z" fill="var(--fill-0, white)" fill-opacity="0.207843"/>
<path id="Vector_17" d="M99.4532 34.9471C99.8097 34.9285 100.226 34.9434 100.587 34.9477C100.225 34.9663 99.8189 34.9519 99.4532 34.9471Z" fill="var(--fill-0, white)" fill-opacity="0.188235"/>
<path id="Vector_18" d="M38.6828 14.9164C39.2114 14.6511 38.8621 14.2854 39.045 14.0899C39.0771 14.1638 39.0984 14.4062 39.1095 14.5005L39.2053 14.5435C39.2434 15.1083 39.3007 16.8472 39.4995 17.3039C39.175 17.4042 39.17 17.6259 38.7996 17.3997C38.5679 16.9833 38.692 15.5234 38.6828 14.9164Z" fill="var(--fill-0, white)" fill-opacity="0.0117647"/>
<path id="Vector_19" d="M130.365 30.3904C130.67 30.8762 130.858 33.6517 130.599 34.1626L130.471 34.0238C130.402 34.0943 130.381 34.1837 130.347 34.279C130.332 33.4026 130.263 31.1755 130.365 30.3904Z" fill="var(--fill-0, white)" fill-opacity="0.14902"/>
<path id="Vector_20" d="M52.1821 7.26495L52.2771 7.47987C52.5755 7.53416 52.3732 7.2967 52.6779 7.4605C52.834 7.87122 52.797 8.91167 52.6837 9.34501L52.6067 9.42913L52.3511 9.37331C52.2073 9.47145 52.2434 9.47727 52.1757 9.68187C52.1936 8.87636 52.1958 8.07053 52.1821 7.26495Z" fill="var(--fill-0, white)" fill-opacity="0.427451"/>
<path id="Vector_21" d="M130.4 11.8819C130.673 12.681 130.908 14.2938 130.524 15.0757L130.529 14.8146C130.485 14.9524 130.456 15.1723 130.374 15.2176C130.277 14.9453 130.288 12.219 130.4 11.8819Z" fill="var(--fill-0, white)" fill-opacity="0.133333"/>
<path id="Vector_22" d="M38.6828 14.9164C38.6006 14.6021 38.5805 13.2708 38.6332 12.9266C38.6683 12.6974 38.7905 12.6574 38.9616 12.5353C38.9425 13.2763 39.2862 13.7485 39.2053 14.5435L39.1095 14.5005C39.0984 14.4062 39.0771 14.1638 39.045 14.0899C38.8621 14.2854 39.2114 14.6511 38.6828 14.9164Z" fill="var(--fill-0, white)" fill-opacity="0.239216"/>
<path id="Vector_23" d="M73.1788 34.8036C73.7337 34.7852 76.534 34.728 76.9553 34.8263C76.7397 34.8963 76.1557 34.8765 76.0823 34.9598L76.3839 35.0939C75.3859 35.1218 74.7893 35.2237 73.7965 35.0185L73.9374 35.0129C73.7033 34.8773 73.4407 34.844 73.1788 34.8036Z" fill="var(--fill-0, white)" fill-opacity="0.180392"/>
<path id="Vector_24" d="M34.5351 29.4875C34.5452 30.072 34.7343 31.0325 33.9667 31.1202C33.9215 31.2422 33.8948 31.3221 33.8621 31.4485C33.8819 31.0374 33.83 29.9961 34.0575 29.698C34.2143 29.6572 34.2692 29.6689 34.4309 29.6856L34.5351 29.4875Z" fill="var(--fill-0, white)" fill-opacity="0.345098"/>
<path id="Vector_25" d="M35.1899 24.4641C35.1888 24.8674 35.2642 25.9459 35.03 26.2135C34.9832 26.267 34.8376 26.2706 34.7498 26.2835L34.6812 26.2557L34.5855 26.4371C34.5818 25.9339 34.4745 25.1985 34.8835 24.868C34.9728 24.8731 35.025 24.8404 35.107 24.8043L35.1899 24.4641Z" fill="var(--fill-0, white)" fill-opacity="0.427451"/>
<path id="Vector_26" d="M118.467 21.8624C118.508 22.1859 118.515 23.9161 118.468 24.2277L118.417 23.8128C118.12 23.5931 118.064 23.9503 117.928 23.5541C118.012 23.5577 118.027 23.5399 118.102 23.4961C118.208 23.1472 118.182 23.0006 118.081 22.6665L117.933 22.6087C117.925 22.2154 118.178 22.4402 118.43 22.2522L118.467 21.8624Z" fill="var(--fill-0, white)" fill-opacity="0.87451"/>
<path id="Vector_27" d="M105.802 34.779C105.978 34.7394 106.73 34.7446 106.975 34.7223C106.723 34.8798 106.611 34.8613 106.416 35.0336L106.593 34.9894C106.263 35.1712 106.08 35.1879 105.662 35.1249C105.019 34.8402 103.816 34.9432 103.075 34.9585C103.736 34.9553 105.237 35.0224 105.776 34.7903L105.802 34.779Z" fill="var(--fill-0, white)" fill-opacity="0.192157"/>
<path id="Vector_28" d="M117.933 22.6087L118.081 22.6665C118.182 23.0006 118.208 23.1472 118.102 23.4961C118.027 23.5399 118.012 23.5577 117.928 23.5541C117.893 23.2208 117.915 22.9408 117.933 22.6087Z" fill="var(--fill-0, white)" fill-opacity="0.827451"/>
<path id="Vector_29" d="M59.0111 25.9078C59.1047 25.9304 59.3802 26.0526 59.4832 26.0954L59.4956 26.2236C59.2527 26.2211 59.2153 26.2567 59.019 26.1458L59.0111 25.9078Z" fill="var(--fill-0, black)" fill-opacity="0.32549"/>
</g>
</svg>
