<svg preserveAspectRatio="none" width="100%" height="100%" overflow="visible" style="display: block;" viewBox="0 0 60 60" fill="none" xmlns="http://www.w3.org/2000/svg">
<g id="real_estate_agent">
<mask id="mask0_0_7" style="mask-type:alpha" maskUnits="userSpaceOnUse" x="0" y="0" width="60" height="60">
<rect id="Bounding box" width="60" height="60" fill="var(--fill-0, #D9D9D9)"/>
</mask>
<g mask="url(#mask0_0_7)">
<path id="real_estate_agent_2" d="M34.8615 53.0532C34.9415 53.0852 35.0175 53.1013 35.0896 53.1013C35.1617 53.1013 35.2298 53.0852 35.294 53.0532L50.4577 48.3219C50.4898 47.4086 50.2125 46.6884 49.6259 46.1613C49.0392 45.6338 48.3534 45.383 47.5684 45.4088H35.0077C34.2627 45.4505 33.5152 45.4127 32.7652 45.2957C32.0152 45.1786 31.2717 44.9919 30.5346 44.7357L26.1934 43.4138C25.8129 43.2834 25.524 43.0232 25.3265 42.6332C25.1286 42.2432 25.0969 41.8582 25.2315 41.4782C25.3661 41.0986 25.6123 40.8198 25.9702 40.6419C26.3277 40.464 26.7098 40.4552 27.1165 40.6157L31.3809 42.0725C31.9513 42.2709 32.5521 42.4077 33.1834 42.4832C33.815 42.5586 34.4784 42.5884 35.1734 42.5725H37.9096C37.9096 41.6492 37.65 40.8807 37.1309 40.2669C36.6117 39.6532 35.9673 39.1957 35.1977 38.8944L21.429 33.7069C21.3648 33.6907 21.3167 33.6786 21.2846 33.6707C21.2525 33.6627 21.2125 33.6588 21.1646 33.6588H15.6259V47.3557L34.8615 53.0532ZM34.2652 55.7738L15.6259 50.3557C15.5263 51.4327 15.0815 52.2677 14.2915 52.8607C13.5015 53.4536 12.7444 53.75 12.0202 53.75H7.86148C6.88232 53.75 6.03669 53.3938 5.32461 52.6813C4.61211 51.9692 4.25586 51.1236 4.25586 50.1444V34.4282C4.25586 33.4365 4.61211 32.5875 5.32461 31.8813C6.03669 31.1755 6.88232 30.8225 7.86148 30.8225H21.074C21.2986 30.8225 21.5148 30.8448 21.7227 30.8894C21.9306 30.9344 22.1371 30.9873 22.3421 31.0482L36.1352 36.1975C37.549 36.7359 38.69 37.538 39.5584 38.6038C40.4271 39.6692 40.8615 40.9921 40.8615 42.5725H47.5684C49.3913 42.5725 50.8773 43.215 52.0265 44.5C53.1761 45.7855 53.7509 47.3063 53.7509 49.0625C53.7509 49.4409 53.6563 49.7894 53.4671 50.1082C53.2779 50.4269 53.015 50.6409 52.6784 50.75L36.3184 55.7738C35.9954 55.8571 35.6559 55.903 35.2996 55.9113C34.9434 55.9192 34.5986 55.8734 34.2652 55.7738ZM7.09211 50.1444C7.09211 50.3686 7.16419 50.5527 7.30836 50.6969C7.45294 50.8411 7.63732 50.9132 7.86148 50.9132H11.9577C12.1819 50.9132 12.3661 50.8532 12.5102 50.7332C12.6548 50.6132 12.7271 50.4169 12.7271 50.1444V33.6588H7.86148C7.63732 33.6588 7.45294 33.7309 7.30836 33.875C7.16419 34.0192 7.09211 34.2036 7.09211 34.4282V50.1444ZM35.9215 5.76191C36.2886 5.879 36.6307 6.0417 36.9477 6.25004L49.7602 15.385C50.2444 15.7021 50.6138 16.1298 50.8684 16.6682C51.1234 17.2069 51.2509 17.7598 51.2509 18.3269V36.13C51.2509 36.5317 51.1138 36.8686 50.8396 37.1407C50.5654 37.4123 50.2257 37.5482 49.8202 37.5482C49.4148 37.5482 49.0792 37.4123 48.8134 37.1407C48.5471 36.8686 48.414 36.5317 48.414 36.13V18.2644C48.414 18.1365 48.3861 18.0123 48.3302 17.8919C48.274 17.7719 48.1898 17.6798 48.0777 17.6157L35.2652 8.66816C35.1369 8.57233 34.9927 8.52441 34.8327 8.52441C34.6723 8.52441 34.5279 8.57233 34.3996 8.66816L21.5871 17.6157C21.475 17.6798 21.3909 17.7719 21.3346 17.8919C21.2788 18.0123 21.2509 18.1365 21.2509 18.2644V24.8369C21.2509 25.2386 21.1138 25.5752 20.8396 25.8469C20.5654 26.119 20.2256 26.255 19.8202 26.255C19.4148 26.255 19.0792 26.119 18.8134 25.8469C18.5471 25.5752 18.414 25.2386 18.414 24.8369V18.3269C18.414 17.7598 18.5415 17.2069 18.7965 16.6682C19.0515 16.1298 19.4209 15.7021 19.9046 15.385L32.7171 6.25004C33.0329 6.0417 33.3688 5.879 33.7246 5.76191C34.08 5.64525 34.4434 5.58691 34.8146 5.58691C35.1859 5.58691 35.5548 5.64525 35.9215 5.76191ZM33.1234 20.6707C33.3492 20.4448 33.4621 20.1813 33.4621 19.88C33.4621 19.5788 33.3492 19.315 33.1234 19.0888C32.8975 18.863 32.634 18.75 32.3327 18.75C32.0315 18.75 31.7677 18.863 31.5415 19.0888C31.3157 19.315 31.2027 19.5788 31.2027 19.88C31.2027 20.1813 31.3157 20.4448 31.5415 20.6707C31.7677 20.8965 32.0315 21.0094 32.3327 21.0094C32.634 21.0094 32.8975 20.8965 33.1234 20.6707ZM38.1234 20.6707C38.3492 20.4448 38.4621 20.1813 38.4621 19.88C38.4621 19.5788 38.3492 19.315 38.1234 19.0888C37.8975 18.863 37.634 18.75 37.3327 18.75C37.0315 18.75 36.7677 18.863 36.5415 19.0888C36.3157 19.315 36.2027 19.5788 36.2027 19.88C36.2027 20.1813 36.3157 20.4448 36.5415 20.6707C36.7677 20.8965 37.0315 21.0094 37.3327 21.0094C37.634 21.0094 37.8975 20.8965 38.1234 20.6707ZM33.1234 25.6707C33.3492 25.4448 33.4621 25.1813 33.4621 24.88C33.4621 24.5788 33.3492 24.315 33.1234 24.0888C32.8975 23.863 32.634 23.75 32.3327 23.75C32.0315 23.75 31.7677 23.863 31.5415 24.0888C31.3157 24.315 31.2027 24.5788 31.2027 24.88C31.2027 25.1813 31.3157 25.4448 31.5415 25.6707C31.7677 25.8965 32.0315 26.0094 32.3327 26.0094C32.634 26.0094 32.8975 25.8965 33.1234 25.6707ZM38.1234 25.6707C38.3492 25.4448 38.4621 25.1813 38.4621 24.88C38.4621 24.5788 38.3492 24.315 38.1234 24.0888C37.8975 23.863 37.634 23.75 37.3327 23.75C37.0315 23.75 36.7677 23.863 36.5415 24.0888C36.3157 24.315 36.2027 24.5788 36.2027 24.88C36.2027 25.1813 36.3157 25.4448 36.5415 25.6707C36.7677 25.8965 37.0315 26.0094 37.3327 26.0094C37.634 26.0094 37.8975 25.8965 38.1234 25.6707Z" fill="var(--fill-0, #1C1B1F)"/>
</g>
</g>
</svg>
