<svg preserveAspectRatio="none" width="100%" height="100%" overflow="visible" style="display: block;" viewBox="0 0 60 60" fill="none" xmlns="http://www.w3.org/2000/svg">
<g id="real_estate_agent">
<mask id="mask0_0_4" style="mask-type:alpha" maskUnits="userSpaceOnUse" x="0" y="0" width="60" height="60">
<rect id="Bounding box" width="60" height="60" fill="var(--fill-0, #D9D9D9)"/>
</mask>
<g mask="url(#mask0_0_4)">
<path id="real_estate_agent_2" d="M34.861 53.0534C34.941 53.0855 35.017 53.1015 35.0891 53.1015C35.1612 53.1015 35.2293 53.0855 35.2935 53.0534L50.4572 48.3222C50.4893 47.4088 50.212 46.6886 49.6254 46.1615C49.0387 45.634 48.3529 45.3832 47.5679 45.409H35.0072C34.2622 45.4507 33.5147 45.413 32.7647 45.2959C32.0147 45.1788 31.2712 44.9922 30.5341 44.7359L26.1929 43.414C25.8125 43.2836 25.5235 43.0234 25.326 42.6334C25.1281 42.2434 25.0964 41.8584 25.231 41.4784C25.3656 41.0988 25.6118 40.8201 25.9697 40.6422C26.3272 40.4642 26.7093 40.4555 27.116 40.6159L31.3804 42.0728C31.9508 42.2711 32.5516 42.408 33.1829 42.4834C33.8145 42.5588 34.4779 42.5886 35.1729 42.5728H37.9091C37.9091 41.6495 37.6495 40.8809 37.1304 40.2672C36.6112 39.6534 35.9668 39.1959 35.1972 38.8947L21.4285 33.7072C21.3643 33.6909 21.3162 33.6788 21.2841 33.6709C21.252 33.663 21.212 33.659 21.1641 33.659H15.6254V47.3559L34.861 53.0534ZM34.2647 55.774L15.6254 50.3559C15.5258 51.433 15.081 52.268 14.291 52.8609C13.501 53.4538 12.7439 53.7503 12.0197 53.7503H7.861C6.88183 53.7503 6.0362 53.394 5.32412 52.6815C4.61162 51.9695 4.25537 51.1238 4.25537 50.1447V34.4284C4.25537 33.4367 4.61162 32.5878 5.32412 31.8815C6.0362 31.1757 6.88183 30.8228 7.861 30.8228H21.0735C21.2981 30.8228 21.5143 30.8451 21.7222 30.8897C21.9302 30.9347 22.1366 30.9876 22.3416 31.0484L36.1347 36.1978C37.5485 36.7361 38.6895 37.5382 39.5579 38.604C40.4266 39.6695 40.861 40.9924 40.861 42.5728H47.5679C49.3908 42.5728 50.8768 43.2153 52.026 44.5003C53.1756 45.7857 53.7504 47.3065 53.7504 49.0628C53.7504 49.4411 53.6558 49.7897 53.4666 50.1084C53.2775 50.4272 53.0145 50.6411 52.6779 50.7503L36.3179 55.774C35.995 55.8574 35.6554 55.9032 35.2991 55.9115C34.9429 55.9195 34.5981 55.8736 34.2647 55.774ZM7.09162 50.1447C7.09162 50.3688 7.1637 50.553 7.30787 50.6972C7.45245 50.8413 7.63683 50.9134 7.861 50.9134H11.9572C12.1814 50.9134 12.3656 50.8534 12.5097 50.7334C12.6543 50.6134 12.7266 50.4172 12.7266 50.1447V33.659H7.861C7.63683 33.659 7.45245 33.7311 7.30787 33.8753C7.1637 34.0194 7.09162 34.2038 7.09162 34.4284V50.1447ZM35.921 5.76216C36.2881 5.87924 36.6302 6.04195 36.9472 6.25028L49.7597 15.3853C50.2439 15.7024 50.6133 16.1301 50.8679 16.6684C51.1229 17.2072 51.2504 17.7601 51.2504 18.3272V36.1303C51.2504 36.5319 51.1133 36.8688 50.8391 37.1409C50.565 37.4126 50.2252 37.5484 49.8197 37.5484C49.4143 37.5484 49.0787 37.4126 48.8129 37.1409C48.5466 36.8688 48.4135 36.5319 48.4135 36.1303V18.2647C48.4135 18.1367 48.3856 18.0126 48.3297 17.8922C48.2735 17.7722 48.1893 17.6801 48.0772 17.6159L35.2647 8.66841C35.1364 8.57257 34.9922 8.52466 34.8322 8.52466C34.6718 8.52466 34.5275 8.57257 34.3991 8.66841L21.5866 17.6159C21.4745 17.6801 21.3904 17.7722 21.3341 17.8922C21.2783 18.0126 21.2504 18.1367 21.2504 18.2647V24.8372C21.2504 25.2388 21.1133 25.5755 20.8391 25.8472C20.565 26.1192 20.2252 26.2553 19.8197 26.2553C19.4143 26.2553 19.0787 26.1192 18.8129 25.8472C18.5466 25.5755 18.4135 25.2388 18.4135 24.8372V18.3272C18.4135 17.7601 18.541 17.2072 18.796 16.6684C19.051 16.1301 19.4204 15.7024 19.9041 15.3853L32.7166 6.25028C33.0325 6.04195 33.3683 5.87924 33.7241 5.76216C34.0795 5.64549 34.4429 5.58716 34.8141 5.58716C35.1854 5.58716 35.5543 5.64549 35.921 5.76216ZM33.1229 20.6709C33.3487 20.4451 33.4616 20.1815 33.4616 19.8803C33.4616 19.579 33.3487 19.3153 33.1229 19.089C32.897 18.8632 32.6335 18.7503 32.3322 18.7503C32.031 18.7503 31.7672 18.8632 31.541 19.089C31.3152 19.3153 31.2022 19.579 31.2022 19.8803C31.2022 20.1815 31.3152 20.4451 31.541 20.6709C31.7672 20.8967 32.031 21.0097 32.3322 21.0097C32.6335 21.0097 32.897 20.8967 33.1229 20.6709ZM38.1229 20.6709C38.3487 20.4451 38.4616 20.1815 38.4616 19.8803C38.4616 19.579 38.3487 19.3153 38.1229 19.089C37.897 18.8632 37.6335 18.7503 37.3322 18.7503C37.031 18.7503 36.7672 18.8632 36.541 19.089C36.3152 19.3153 36.2022 19.579 36.2022 19.8803C36.2022 20.1815 36.3152 20.4451 36.541 20.6709C36.7672 20.8967 37.031 21.0097 37.3322 21.0097C37.6335 21.0097 37.897 20.8967 38.1229 20.6709ZM33.1229 25.6709C33.3487 25.4451 33.4616 25.1815 33.4616 24.8803C33.4616 24.579 33.3487 24.3153 33.1229 24.089C32.897 23.8632 32.6335 23.7503 32.3322 23.7503C32.031 23.7503 31.7672 23.8632 31.541 24.089C31.3152 24.3153 31.2022 24.579 31.2022 24.8803C31.2022 25.1815 31.3152 25.4451 31.541 25.6709C31.7672 25.8967 32.031 26.0097 32.3322 26.0097C32.6335 26.0097 32.897 25.8967 33.1229 25.6709ZM38.1229 25.6709C38.3487 25.4451 38.4616 25.1815 38.4616 24.8803C38.4616 24.579 38.3487 24.3153 38.1229 24.089C37.897 23.8632 37.6335 23.7503 37.3322 23.7503C37.031 23.7503 36.7672 23.8632 36.541 24.089C36.3152 24.3153 36.2022 24.579 36.2022 24.8803C36.2022 25.1815 36.3152 25.4451 36.541 25.6709C36.7672 25.8967 37.031 26.0097 37.3322 26.0097C37.6335 26.0097 37.897 25.8967 38.1229 25.6709Z" fill="var(--fill-0, #1C1B1F)"/>
</g>
</g>
</svg>
